<svg width="796" height="796" viewBox="0 0 796 796" fill="none" xmlns="http://www.w3.org/2000/svg">
<circle cx="398" cy="398" r="398" fill="#931433"/>
<path d="M108 463.617C122.692 402.88 145.715 344.718 164.799 285.344C180.551 235.966 224.022 205.219 275.671 205.067C357.614 205.067 439.707 204.916 521.65 205.067C571.784 205.067 614.8 235.36 630.855 282.769C649.031 336.387 666.753 390.157 684.019 443.927C690.532 464.223 689.775 484.974 684.019 505.421C680.536 517.69 668.873 524.809 656.907 521.78C644.184 518.599 636.914 506.785 640.246 493.91C644.336 478.309 643.124 463.314 638.126 448.319C621.768 399.699 605.712 350.928 589.657 302.308C578.449 268.379 553.609 250.355 517.863 250.355C437.738 250.355 357.613 250.355 277.489 250.355C242.955 250.355 217.812 268.228 206.906 300.793C190.094 351.079 173.433 401.365 156.923 451.652C141.474 498.606 176.159 546.62 224.931 544.802C254.618 543.742 275.52 528.141 287.788 501.029C290.212 495.576 291.726 489.669 293.847 483.913C303.995 456.498 329.441 438.626 358.825 438.474C385.029 438.323 411.383 438.323 437.587 438.474C466.516 438.626 491.962 456.498 502.262 483.611C503.928 488.154 505.291 492.85 506.958 497.545C519.378 531.776 553.154 550.558 588.748 543.136C602.835 540.258 614.497 547.074 617.527 560.1C620.404 572.52 612.528 584.032 599.048 587.212C541.946 600.693 483.783 568.279 464.093 512.086C462.578 507.845 461.367 503.452 459.701 499.211C455.611 489.215 448.038 483.913 437.435 483.913C411.383 483.611 385.331 483.762 359.28 483.913C348.223 483.913 340.195 490.426 336.106 501.483C332.47 511.026 329.441 520.871 324.594 529.656C301.572 572.823 251.285 597.36 204.634 588.878C153.591 579.488 115.725 540.107 109.212 489.821C109.06 488.609 108.454 487.397 108.151 486.185C108 478.764 108 471.19 108 463.617Z" fill="#ECECEC"/>
<path d="M267.795 332.146C267.795 323.967 267.644 316.848 267.795 309.729C268.098 296.703 277.792 286.858 290.363 286.858C303.086 286.858 312.931 296.703 313.083 310.032C313.234 317.151 313.083 324.27 313.083 332.146C320.353 332.146 327.321 332.146 334.288 332.146C348.223 332.146 358.371 341.537 358.522 354.563C358.674 367.74 348.526 377.434 334.439 377.585C327.624 377.585 320.808 377.585 313.234 377.585C313.234 384.553 313.234 391.217 313.234 398.033C313.234 412.725 303.844 423.025 290.515 422.873C277.186 422.873 267.947 412.574 267.947 397.73C267.947 391.369 267.947 384.856 267.947 377.585C261.888 377.585 255.829 377.737 249.922 377.585C246.287 377.434 242.652 377.434 239.32 376.677C228.566 373.95 221.598 363.651 222.81 352.745C224.022 341.688 233.11 332.752 244.318 332.449C251.891 331.995 259.616 332.146 267.795 332.146Z" fill="#ECECEC"/>
<path d="M528.617 309.578C528.465 321.998 518.166 332.146 505.746 331.995C493.325 331.843 483.177 321.544 483.329 309.124C483.48 296.703 493.78 286.555 506.2 286.707C518.62 286.858 528.617 297.158 528.617 309.578Z" fill="#ECECEC"/>
<path d="M483.178 354.563C483.178 366.983 473.181 377.283 460.609 377.434C448.189 377.434 437.89 367.437 437.738 354.866C437.738 342.446 447.735 332.146 460.306 331.995C472.878 331.995 483.178 342.143 483.178 354.563Z" fill="#ECECEC"/>
<path d="M551.034 332.146C563.605 331.995 573.753 342.143 573.905 354.563C574.056 366.983 563.908 377.283 551.488 377.434C539.068 377.585 528.768 367.437 528.617 355.017C528.465 342.446 538.614 332.146 551.034 332.146Z" fill="#ECECEC"/>
<path d="M528.617 400.305C528.465 412.725 518.166 422.873 505.746 422.722C493.325 422.57 483.177 412.271 483.329 399.851C483.48 387.431 493.78 377.283 506.2 377.434C518.62 377.586 528.617 387.885 528.617 400.305Z" fill="#ECECEC"/>
</svg>
