<svg width="2937" height="372" viewBox="0 0 2937 372" fill="none" xmlns="http://www.w3.org/2000/svg">
<g clip-path="url(#clip0_11_243)">
<path d="M255 215.4C264.7 175.3 279.9 136.9 292.5 97.7002C302.9 65.1002 331.6 44.8002 365.7 44.7002C419.8 44.7002 474 44.6002 528.1 44.7002C561.2 44.7002 589.6 64.7002 600.2 96.0002C612.2 131.4 623.9 166.9 635.3 202.4C639.6 215.8 639.1 229.5 635.3 243C633 251.1 625.3 255.8 617.4 253.8C609 251.7 604.2 243.9 606.4 235.4C609.1 225.1 608.3 215.2 605 205.3C594.2 173.2 583.6 141 573 108.9C565.6 86.5002 549.2 74.6002 525.6 74.6002C472.7 74.6002 419.8 74.6002 366.9 74.6002C344.1 74.6002 327.5 86.4002 320.3 107.9C309.2 141.1 298.2 174.3 287.3 207.5C277.1 238.5 300 270.2 332.2 269C351.8 268.3 365.6 258 373.7 240.1C375.3 236.5 376.3 232.6 377.7 228.8C384.4 210.7 401.2 198.9 420.6 198.8C437.9 198.7 455.3 198.7 472.6 198.8C491.7 198.9 508.5 210.7 515.3 228.6C516.4 231.6 517.3 234.7 518.4 237.8C526.6 260.4 548.9 272.8 572.4 267.9C581.7 266 589.4 270.5 591.4 279.1C593.3 287.3 588.1 294.9 579.2 297C541.5 305.9 503.1 284.5 490.1 247.4C489.1 244.6 488.3 241.7 487.2 238.9C484.5 232.3 479.5 228.8 472.5 228.8C455.3 228.6 438.1 228.7 420.9 228.8C413.6 228.8 408.3 233.1 405.6 240.4C403.2 246.7 401.2 253.2 398 259C382.8 287.5 349.6 303.7 318.8 298.1C285.1 291.9 260.1 265.9 255.8 232.7C255.7 231.9 255.3 231.1 255.1 230.3C255 225.4 255 220.4 255 215.4Z" fill="#ECECEC"/>
<path d="M360.6 128.6C360.6 123.2 360.5 118.5 360.6 113.8C360.8 105.2 367.2 98.7002 375.5 98.7002C383.9 98.7002 390.4 105.2 390.5 114C390.6 118.7 390.5 123.4 390.5 128.6C395.3 128.6 399.9 128.6 404.5 128.6C413.7 128.6 420.4 134.8 420.5 143.4C420.6 152.1 413.9 158.5 404.6 158.6C400.1 158.6 395.6 158.6 390.6 158.6C390.6 163.2 390.6 167.6 390.6 172.1C390.6 181.8 384.4 188.6 375.6 188.5C366.8 188.5 360.7 181.7 360.7 171.9C360.7 167.7 360.7 163.4 360.7 158.6C356.7 158.6 352.7 158.7 348.8 158.6C346.4 158.5 344 158.5 341.8 158C334.7 156.2 330.1 149.4 330.9 142.2C331.7 134.9 337.7 129 345.1 128.8C350 128.4 355.1 128.6 360.6 128.6Z" fill="#ECECEC"/>
<path d="M532.7 113.7C532.6 121.9 525.8 128.6 517.6 128.5C509.4 128.4 502.7 121.6 502.8 113.4C502.9 105.2 509.7 98.5002 517.9 98.6002C526.1 98.7002 532.8 105.5 532.7 113.7Z" fill="#ECECEC"/>
<path d="M502.8 143.4C502.8 151.6 496.2 158.4 487.9 158.5C479.7 158.5 472.9 151.9 472.8 143.6C472.8 135.4 479.4 128.6 487.7 128.5C496 128.5 502.7 135.2 502.8 143.4Z" fill="#ECECEC"/>
<path d="M547.5 128.6C555.8 128.5 562.5 135.2 562.6 143.4C562.7 151.6 556 158.4 547.8 158.5C539.6 158.6 532.8 151.9 532.7 143.7C532.7 135.4 539.3 128.6 547.5 128.6Z" fill="#ECECEC"/>
<path d="M532.7 173.6C532.6 181.8 525.8 188.5 517.6 188.4C509.4 188.3 502.7 181.5 502.8 173.3C502.9 165.1 509.7 158.4 517.9 158.5C526.1 158.6 532.8 165.4 532.7 173.6Z" fill="#ECECEC"/>
<path d="M150.4 72.0001V295.2H87.2V72.0001H0V11.6001H238V72.0001H150.4Z" fill="#ECECEC"/>
<path d="M834.8 156.4C828 154.8 821.6 154.4 815.6 154.4C791.2 154.4 769.2 168.8 769.2 208.4V295.2H708.4V96.3999H767.2V123.2C777.6 100.8 802.8 94.3999 818.8 94.3999C824.8 94.3999 830.8 95.1999 834.8 96.3999V156.4Z" fill="#ECECEC"/>
<path d="M932.4 295.2H871.6V96.4H930.4V119.2C941.2 100.4 965.6 91.2 986 91.2C1036 91.2 1058.4 126.8 1058.4 170.4V295.2H997.6V180.8C997.6 161.2 987.2 146.4 965.2 146.4C945.2 146.4 932.4 161.2 932.4 181.2V295.2Z" fill="#ECECEC"/>
<path d="M1290.4 238C1280.8 272.4 1249.2 301.2 1198.8 301.2C1144 301.2 1095.2 262 1095.2 195.2C1095.2 131.2 1142.8 90.3999 1194.4 90.3999C1256 90.3999 1294 128.4 1294 192.4C1294 200.8 1293.2 210 1292.8 211.2H1154.4C1155.6 233.6 1176 249.6 1199.6 249.6C1221.6 249.6 1234 239.2 1239.6 223.6L1290.4 238ZM1235.2 172C1234.4 156.8 1224 138.4 1195.2 138.4C1169.6 138.4 1156.8 157.2 1155.6 172H1235.2Z" fill="#ECECEC"/>
<path d="M1344.8 371.6L1390 268.4L1306.4 96.3999H1374.4L1422.8 202.8L1466.8 96.3999H1531.2L1408.8 371.6H1344.8Z" fill="#ECECEC"/>
<path d="M1875.2 295.2L1871.2 266.4C1858.8 284.4 1832 301.2 1791.6 301.2C1712.8 301.2 1648 243.2 1648 153.6C1648 64.4001 1715.6 5.6001 1795.6 5.6001C1876.8 5.6001 1914.4 53.6001 1926.8 93.2001L1866 114.4C1861.6 96.8001 1842.8 64.8001 1795.6 64.8001C1757.2 64.8001 1712 90.4001 1712 153.6C1712 212.8 1751.2 243.6 1797.2 243.6C1844 243.6 1863.6 213.2 1867.2 197.2H1782V143.6H1926.4V295.2H1875.2Z" fill="#ECECEC"/>
<path d="M2156.4 238C2146.8 272.4 2115.2 301.2 2064.8 301.2C2010 301.2 1961.2 262 1961.2 195.2C1961.2 131.2 2008.8 90.3999 2060.4 90.3999C2122 90.3999 2160 128.4 2160 192.4C2160 200.8 2159.2 210 2158.8 211.2H2020.4C2021.6 233.6 2042 249.6 2065.6 249.6C2087.6 249.6 2100 239.2 2105.6 223.6L2156.4 238ZM2101.2 172C2100.4 156.8 2090 138.4 2061.2 138.4C2035.6 138.4 2022.8 157.2 2021.6 172H2101.2Z" fill="#ECECEC"/>
<path d="M2260 295.2H2199.2V96.4H2258V119.2C2268.8 100.4 2293.2 91.2 2313.6 91.2C2363.6 91.2 2386 126.8 2386 170.4V295.2H2325.2V180.8C2325.2 161.2 2314.8 146.4 2292.8 146.4C2272.8 146.4 2260 161.2 2260 181.2V295.2Z" fill="#ECECEC"/>
<path d="M2467.2 0C2487.2 0 2503.2 16 2503.2 35.6C2503.2 55.2 2487.2 71.2 2467.2 71.2C2448 71.2 2432 55.2 2432 35.6C2432 16 2448 0 2467.2 0ZM2437.2 295.2V96.4H2498V295.2H2437.2Z" fill="#ECECEC"/>
<path d="M2678 275.2C2667.6 292.4 2644.8 299.6 2624.8 299.6C2576.4 299.6 2549.2 264.4 2549.2 222V96.3999H2610V209.2C2610 228.4 2620.4 243.6 2642 243.6C2662.4 243.6 2675.2 229.6 2675.2 209.6V96.3999H2736V259.6C2736 277.6 2737.6 292 2738 295.2H2679.6C2678.8 291.6 2678 280.4 2678 275.2Z" fill="#ECECEC"/>
<path d="M2824.8 229.6C2825.6 243.2 2835.2 256.4 2856 256.4C2871.6 256.4 2879.2 248 2879.2 239.2C2879.2 232 2874.4 226 2859.6 222.8L2836.8 217.6C2794.4 208.4 2777.6 184.4 2777.6 156.4C2777.6 120 2809.6 90.3999 2854 90.3999C2911.6 90.3999 2931.6 126.4 2933.6 149.6L2883.2 158.8C2881.6 145.6 2873.2 134.4 2854.8 134.4C2843.2 134.4 2833.2 141.2 2833.2 151.6C2833.2 160 2840 164.8 2848.8 166.4L2875.2 171.6C2916.4 180 2936.4 204.8 2936.4 234C2936.4 268 2910.4 301.2 2857.2 301.2C2794.8 301.2 2774.8 260.8 2773.2 238.8L2824.8 229.6Z" fill="#ECECEC"/>
</g>
<defs>
<clipPath id="clip0_11_243">
<rect width="2936.4" height="371.6" fill="white"/>
</clipPath>
</defs>
</svg>
